<svg width="16" height="16" viewBox="0 0 16 16" fill="none" xmlns="http://www.w3.org/2000/svg">
<path d="M8 8.00001C9.83789 8.00001 11.3333 6.50457 11.3333 4.66668C11.3333 2.82879 9.83789 1.33334 8 1.33334C6.16211 1.33334 4.66667 2.82879 4.66667 4.66668C4.66667 6.50457 6.16211 8.00001 8 8.00001ZM8 2.66668C9.10286 2.66668 10 3.56381 10 4.66668C10 5.76954 9.10286 6.66668 8 6.66668C6.89714 6.66668 6 5.76954 6 4.66668C6 3.56381 6.89714 2.66668 8 2.66668ZM10 8.70899H6C4.89714 8.70899 4 9.60613 4 10.709V14C4 14.3682 4.29818 14.6667 4.66667 14.6667H11.3333C11.7018 14.6667 12 14.3682 12 14V10.709C12 9.60613 11.1029 8.70899 10 8.70899ZM10.6667 13.3333H5.33333V10.709C5.33333 10.3415 5.63216 10.0423 6 10.0423H10C10.3678 10.0423 10.6667 10.3415 10.6667 10.709V13.3333Z" fill="white"/>
</svg>
