<svg width="16" height="17" viewBox="0 0 16 17" fill="none" xmlns="http://www.w3.org/2000/svg">
<g clip-path="url(#clip0_2815_63642)">
<path d="M13.3333 6.33334H7.33333C6.59695 6.33334 6 6.9303 6 7.66668V13.6667C6 14.4031 6.59695 15 7.33333 15H13.3333C14.0697 15 14.6667 14.4031 14.6667 13.6667V7.66668C14.6667 6.9303 14.0697 6.33334 13.3333 6.33334Z" stroke="white" stroke-width="1.5" stroke-linecap="round" stroke-linejoin="round"/>
<path d="M3.33333 10.3334H2.66667C2.31304 10.3334 1.9739 10.1929 1.72386 9.94283C1.47381 9.69278 1.33333 9.35364 1.33333 9.00002V3.00002C1.33333 2.6464 1.47381 2.30726 1.72386 2.05721C1.9739 1.80716 2.31304 1.66669 2.66667 1.66669H8.66667C9.02029 1.66669 9.35943 1.80716 9.60947 2.05721C9.85952 2.30726 10 2.6464 10 3.00002V3.66669" stroke="white" stroke-width="1.5" stroke-linecap="round" stroke-linejoin="round"/>
</g>
<defs>
<clipPath id="clip0_2815_63642">
<rect width="16" height="16" fill="white" transform="translate(0 0.333344)"/>
</clipPath>
</defs>
</svg>
