<svg width="12" height="16" viewBox="0 0 12 16" fill="none" xmlns="http://www.w3.org/2000/svg">
<path d="M5.40667 15.1667C5.32937 15.1666 5.25267 15.153 5.18 15.1267C5.03983 15.0753 4.92095 14.9785 4.84238 14.8516C4.76381 14.7246 4.73011 14.575 4.74667 14.4267L5.26 9.7H1.33334C1.21222 9.70019 1.09335 9.66737 0.98948 9.60509C0.88561 9.5428 0.800671 9.4534 0.743783 9.34648C0.686895 9.23955 0.660209 9.11916 0.666591 8.99821C0.672972 8.87727 0.71218 8.76035 0.780004 8.66L6.04 0.793337C6.1232 0.670229 6.24513 0.57844 6.38644 0.532543C6.52776 0.486646 6.68035 0.489272 6.82 0.540004C6.95426 0.589846 7.06889 0.681593 7.14694 0.801664C7.22498 0.921734 7.26229 1.06374 7.25334 1.20667L6.74 5.96667H10.6667C10.7878 5.96649 10.9067 5.9993 11.0105 6.06159C11.1144 6.12387 11.1993 6.21328 11.2562 6.3202C11.3131 6.42712 11.3398 6.54752 11.3334 6.66846C11.327 6.78941 11.2878 6.90633 11.22 7.00667L5.96 14.8733C5.89885 14.9638 5.81641 15.0379 5.71993 15.089C5.62344 15.1402 5.51587 15.1668 5.40667 15.1667ZM2.58 8.36667H6C6.09303 8.36689 6.18499 8.38658 6.26995 8.42447C6.35491 8.46236 6.43101 8.51761 6.49334 8.58667C6.55625 8.65667 6.60363 8.7392 6.63235 8.82882C6.66108 8.91845 6.6705 9.01314 6.66 9.10667L6.36 11.8733L9.42 7.3H6C5.90593 7.30057 5.8128 7.28123 5.72673 7.24324C5.64067 7.20525 5.56362 7.14947 5.50065 7.07957C5.43768 7.00968 5.39022 6.92725 5.36138 6.8377C5.33254 6.74815 5.32299 6.65351 5.33334 6.56L5.63334 3.79334L2.58 8.36667Z" fill="white"/>
</svg>
