<svg width="209" height="150" viewBox="0 0 209 150" fill="none" xmlns="http://www.w3.org/2000/svg">
<g clip-path="url(#clip0_2608_2498)">
<path d="M109.263 149.457C109.142 149.415 109.021 149.373 108.905 149.327C108.868 149.369 108.835 149.411 108.798 149.457H27.7963C20.3553 140.413 15.8516 128.891 15.8516 116.435C15.8516 97.1604 26.2719 80.3215 41.7815 71.2397C53.8285 64.189 64.0072 54.3264 71.1694 42.3491C84.1832 20.5882 108.082 6.09646 135.346 6.40321C175.963 6.8587 208.795 40.5504 208.242 81.1674C207.819 112.586 187.745 139.26 159.751 149.462H109.258L109.263 149.457Z" fill="#F2E6DC"/>
<path d="M5.53059 73.8068L0.882812 42.7969H48.727V73.8068H5.53059Z" fill="#D87355" stroke="#1D1D1B" stroke-width="0.232389" stroke-miterlimit="10"/>
<path d="M48.7266 42.7969V73.8068H5.53013V48.1418C5.53013 45.1905 7.92373 42.7969 10.8751 42.7969H48.7266Z" fill="#D87355" stroke="#1D1D1B" stroke-width="0.232389" stroke-miterlimit="10"/>
<path d="M31.0321 9.5H13.2559C12.7036 9.5 12.2559 9.94772 12.2559 10.5V29.2291C12.2559 29.7814 12.7036 30.2291 13.2559 30.2291H31.0321C31.5844 30.2291 32.0321 29.7814 32.0321 29.2291V10.5C32.0321 9.94772 31.5844 9.5 31.0321 9.5Z" fill="#D87355" stroke="#1D1D1B" stroke-width="0.232389" stroke-miterlimit="10"/>
<path d="M65.431 0.125H54.7891C54.2368 0.125 53.7891 0.572716 53.7891 1.125V12.3712C53.7891 12.9234 54.2368 13.3712 54.7891 13.3712H65.431C65.9833 13.3712 66.431 12.9234 66.431 12.3712V1.125C66.431 0.572715 65.9833 0.125 65.431 0.125Z" fill="#D87355" stroke="#1D1D1B" stroke-width="0.232389" stroke-miterlimit="10"/>
<path d="M59.9014 69.1016C59.9014 67.997 59.0059 67.1016 57.9014 67.1016H20.1504C19.0458 67.1016 18.1504 67.997 18.1504 69.1016V91.7752C18.1504 92.8797 19.0458 93.7752 20.1504 93.7752H49.1144C49.6982 93.7752 50.2528 94.0302 50.6328 94.4734L52.239 96.3468C53.1803 97.4447 54.9794 96.779 54.9794 95.3329C54.9794 94.4726 55.6768 93.7752 56.5371 93.7752H57.9014C59.0059 93.7752 59.9014 92.8797 59.9014 91.7752V69.1016Z" fill="white" stroke="#1D1D1B" stroke-width="0.232389" stroke-miterlimit="10"/>
<path d="M60.1993 7.46875C60.1993 6.91647 59.7515 6.46875 59.1993 6.46875H39.9961C39.4438 6.46875 38.9961 6.91647 38.9961 7.46875V34.7404C38.9961 35.2927 39.4438 35.7404 39.9961 35.7404H51.7821C52.0742 35.7404 52.3516 35.8681 52.5416 36.0899L54.9261 38.8734C55.5302 39.5786 56.6855 39.1514 56.6855 38.2229V36.7404C56.6855 36.1882 57.1332 35.7404 57.6855 35.7404H59.1993C59.7515 35.7404 60.1993 35.2927 60.1993 34.7404V7.46875Z" fill="white" stroke="#1D1D1B" stroke-width="0.232389" stroke-miterlimit="10"/>
<path d="M98.0149 29.7422L148.309 31.0622C163.897 31.4712 176.223 44.4013 175.888 59.9899L172.863 149.641L114.157 149.362L117.796 109.331L109.885 58.3818L74.4414 53.9525L98.0149 29.7422Z" fill="#EFBC73"/>
<path d="M117.952 109.953L117.724 110.088L114.154 149.352L172.865 149.631L174.171 110.237L117.952 109.953Z" fill="#363E44"/>
<path d="M151.889 75.1079V58.2969" stroke="#1D1D1B" stroke-width="0.232389" stroke-miterlimit="10" stroke-linecap="round"/>
<path d="M148.406 61.3828L151.808 70.0834" stroke="#1D1D1B" stroke-width="0.232389" stroke-miterlimit="10" stroke-linecap="round"/>
<path d="M96.6252 56.7225L98.0149 29.7422L74.4414 53.9478L96.6252 56.7225Z" fill="#BC8271"/>
<path d="M133.284 52.0016C141.506 52.0016 148.171 45.3367 148.171 37.1148C148.171 34.9164 147.692 32.8295 146.832 30.9518L120.07 30.25C119.001 32.3043 118.393 34.6375 118.393 37.1148C118.393 45.3367 125.057 52.0016 133.279 52.0016H133.284Z" fill="#BC8271"/>
<path d="M129.264 32.8984L124.598 42.3938L131.876 49.5933" fill="#BC8271"/>
<path d="M129.264 32.8984L124.598 42.3938L131.876 49.5932" stroke="#1D1D1B" stroke-width="0.232389" stroke-miterlimit="10"/>
<path d="M131.089 43.5109C136.674 37.9259 136.674 28.8709 131.089 23.286C125.504 17.701 116.449 17.701 110.864 23.2859C105.279 28.8709 105.279 37.926 110.864 43.5109C116.449 49.0959 125.504 49.0959 131.089 43.5109Z" fill="#BC8271"/>
<path d="M131.089 43.5109C136.674 37.9259 136.674 28.8709 131.089 23.286C125.504 17.701 116.449 17.701 110.864 23.2859C105.279 28.8709 105.279 37.926 110.864 43.5109C116.449 49.0959 125.504 49.0959 131.089 43.5109Z" stroke="#1D1D1B" stroke-width="0.232389" stroke-miterlimit="10" stroke-linecap="round"/>
<path d="M107.506 27.7571L134.561 28.352L128.848 8.93821C127.347 3.8303 120.389 3.14708 117.922 7.86457L107.506 27.7571Z" fill="#D87355"/>
<path d="M112.836 37.2388C112.999 38.1265 112.725 38.9166 112.223 39.0096C111.721 39.1025 111.186 38.4565 111.023 37.5688C110.861 36.681 111.135 35.8909 111.637 35.798C112.139 35.705 112.673 36.351 112.836 37.2388Z" fill="#1D1D1B"/>
<path d="M120.729 36.52C120.891 37.4077 120.617 38.1979 120.115 38.2908C119.613 38.3838 119.079 37.7377 118.916 36.85C118.753 35.9623 119.028 35.1722 119.53 35.0792C120.031 34.9863 120.566 35.6323 120.729 36.52Z" fill="#1D1D1B"/>
<path d="M114.275 33.5781L115.577 36.8362C115.758 37.2871 115.786 37.789 115.656 38.2584L115.066 40.3918C114.894 41.0053 115.284 41.6327 115.907 41.7536L117.362 42.0417" stroke="#1D1D1B" stroke-width="0.232389" stroke-miterlimit="10" stroke-linecap="round"/>
<path d="M109.262 33.8716L111.191 31.4688" stroke="#1D1D1B" stroke-width="0.929555" stroke-miterlimit="10" stroke-linecap="round"/>
<path d="M118.133 31.2895C118.221 31.2616 121.721 32.4747 121.721 32.4747" stroke="#1D1D1B" stroke-width="0.929555" stroke-miterlimit="10" stroke-linecap="round"/>
<path d="M118.279 43.8382C118.279 43.8382 119.167 42.1185 121.068 42.0859" stroke="#1D1D1B" stroke-width="0.232389" stroke-miterlimit="10" stroke-linecap="round"/>
<path d="M138.206 31.317C138.206 28.9374 136.147 27.0411 133.716 27.306C131.857 27.5105 130.351 29.0257 130.156 30.8894C130.1 31.4425 130.156 31.9724 130.3 32.4604C130.481 33.0739 130.807 33.6223 131.23 34.0732C130.997 34.3706 130.825 34.7192 130.732 35.0957C130.639 35.4721 130.616 35.8812 130.695 36.2995C130.909 37.4939 131.918 38.4328 133.121 38.5722C134.822 38.7721 136.268 37.4475 136.268 35.7836C136.268 35.7417 136.268 35.6952 136.268 35.6534C136.245 35.1422 136.472 34.6681 136.853 34.3288C137.685 33.5898 138.211 32.5115 138.211 31.3124L138.206 31.317Z" fill="#BC8271"/>
<path d="M130.694 36.3041C130.908 37.4986 131.917 38.4374 133.121 38.5769C134.822 38.7767 136.267 37.4521 136.267 35.7882C136.267 35.7464 136.267 35.6999 136.267 35.6581C136.244 35.1468 136.472 34.6727 136.853 34.3334C137.685 33.5944 138.21 32.5162 138.21 31.317C138.21 28.9374 136.151 27.0411 133.72 27.306C131.861 27.5105 130.355 29.0257 130.16 30.8894C130.104 31.4425 130.16 31.9724 130.304 32.4604" stroke="#1D1D1B" stroke-width="0.232389" stroke-miterlimit="10"/>
<path d="M108.545 49.9531L109.883 58.3749" stroke="#1D1D1B" stroke-width="0.232389" stroke-miterlimit="10"/>
<path d="M163.727 110.117V149.633" stroke="#1D1D1B" stroke-width="0.232389" stroke-miterlimit="10"/>
<path d="M151.886 67.7031L150.937 90.9606L125.542 121.813L123.311 121.422C118.784 120.627 114.122 121.51 110.195 123.899L102.196 127.975C100.806 128.682 100.142 130.374 100.806 131.782C101.494 133.241 103.247 133.832 104.678 133.107L114.638 128.487L108.034 134.269C106.863 135.296 106.63 137.094 107.62 138.298C108.647 139.544 110.492 139.688 111.696 138.633L112.3 138.103C112.198 138.916 112.44 139.767 113.049 140.418C114.113 141.552 115.921 141.556 117.092 140.529L117.604 140.083C117.357 140.975 117.552 141.97 118.208 142.714C119.244 143.899 121.043 144.015 122.228 142.979L127.643 138.238C127.87 138.038 128.056 137.81 128.205 137.569L134.726 136.895C138.244 136.532 141.507 134.891 143.905 132.289L170.714 103.119C173.335 100.498 174.841 96.9609 174.911 93.252L175.659 67.7682L151.899 67.7031H151.886Z" fill="#BC8271"/>
<path d="M127.634 138.231L122.22 142.971C121.034 144.008 119.236 143.887 118.199 142.706C117.163 141.521 117.284 139.723 118.464 138.686L123.879 133.945" stroke="#1D1D1B" stroke-width="0.232389" stroke-miterlimit="10" stroke-linecap="round"/>
<path d="M117.599 140.075L116.999 140.6C115.814 141.637 114.015 141.516 112.979 140.336C111.942 139.15 112.063 137.352 113.244 136.315L120.815 129.688" stroke="#1D1D1B" stroke-width="0.232389" stroke-miterlimit="10" stroke-linecap="round"/>
<path d="M112.3 138.098L111.696 138.628C110.511 139.664 108.712 139.543 107.676 138.363C106.639 137.178 106.76 135.379 107.941 134.342L117.715 125.781" stroke="#1D1D1B" stroke-width="0.232389" stroke-miterlimit="10" stroke-linecap="round"/>
<path d="M125.545 121.802L155.179 85.8516" stroke="#1D1D1B" stroke-width="0.232389" stroke-miterlimit="10"/>
<path d="M110.463 20.5797C110.352 20.5146 110.231 20.4681 110.115 20.4217L110.138 20.3845C110.621 19.5432 110.654 18.4975 110.157 17.6655C109.762 17.0102 109.232 16.7546 108.688 16.6477C109.125 15.5694 108.725 14.3052 107.684 13.7056C106.792 13.1897 105.704 13.3292 104.96 13.9659C103.836 13.357 102.423 13.7475 101.781 14.8629L98.198 21.0724C98.1143 21.2164 98.0492 21.3652 97.9981 21.5139L96.8501 23.782C96.0925 25.2786 94.6796 26.329 93.0296 26.6218L72.3889 30.2889L72.4075 30.3493C66.9417 31.409 62.8145 36.2195 62.8145 41.9966C62.8145 48.55 68.1269 53.8624 74.6802 53.8624C76.7671 53.8624 78.7284 53.3233 80.4342 52.3751L101.368 42.0571C107.754 38.8315 108.544 28.941 108.544 28.941L108.428 28.8574L111.337 23.8192C111.993 22.6851 111.602 21.2304 110.468 20.575L110.463 20.5797Z" fill="#BC8271" stroke="#1D1D1B" stroke-width="0.232389" stroke-miterlimit="10"/>
<path d="M103.811 27.3679L107.222 21.4606C107.877 20.3265 109.327 19.9361 110.466 20.5914C111.6 21.2468 111.991 22.6969 111.335 23.8356L107.924 29.7429" stroke="#1D1D1B" stroke-width="0.232389" stroke-miterlimit="10" stroke-linecap="round"/>
<path d="M102.131 24.7604L106.156 17.7887C106.811 16.6546 108.261 16.2642 109.4 16.9196C110.534 17.5749 110.924 19.025 110.269 20.1637" stroke="#1D1D1B" stroke-width="0.232389" stroke-miterlimit="10" stroke-linecap="round"/>
<path d="M99.5625 23.1343L104.438 14.5778C105.093 13.4437 106.543 13.0533 107.682 13.7086C108.723 14.3082 109.137 15.577 108.695 16.6553" stroke="#1D1D1B" stroke-width="0.232389" stroke-miterlimit="10" stroke-linecap="round"/>
<path d="M132.672 35.4522C132.672 35.4522 132.124 31.0043 135.763 30.9531" stroke="#1D1D1B" stroke-width="0.232389" stroke-miterlimit="10"/>
<path d="M132.691 34.206C132.691 34.206 133.574 32.5328 135.09 33.2765" stroke="#1D1D1B" stroke-width="0.232389" stroke-miterlimit="10"/>
<path d="M179.416 146.735C183.785 146.735 187.327 143.193 187.327 138.825C187.327 134.456 183.785 130.914 179.416 130.914C175.048 130.914 171.506 134.456 171.506 138.825C171.506 143.193 175.048 146.735 179.416 146.735Z" stroke="#1D1D1B" stroke-width="0.232389" stroke-miterlimit="10"/>
<path d="M174.876 149.527H159.826L155.871 128.523H178.831L174.876 149.527Z" fill="#D87355"/>
<path d="M87.5693 149.359H38.3633L24.4199 108.695H73.6259L87.5693 149.359Z" fill="white" stroke="#1D1D1B" stroke-width="0.232389" stroke-miterlimit="10"/>
<path d="M119.131 147.375H37.6094V149.392H119.131V147.375Z" fill="white" stroke="#1D1D1B" stroke-width="0.232389" stroke-miterlimit="10"/>
<path d="M193.422 149.672H21.2734" stroke="#1D1D1B" stroke-width="0.464778" stroke-miterlimit="10" stroke-linecap="round"/>
<path d="M31.7732 10.552L12.5273 10.2422L12.224 29.0869L31.4698 29.3967L31.7732 10.552Z" fill="#FFE4CB"/>
<path d="M31.2701 11.1454L13.0137 10.8516L12.72 29.0937L30.9764 29.3876L31.2701 11.1454Z" fill="white"/>
<path d="M31.4717 29.1313L31.467 29.3974L21.7686 29.2407L23.8982 27.18L26.8312 24.3387L31.4717 29.1313Z" fill="#FFE4CB"/>
<path d="M12.2226 29.0988L12.2523 27.2872L18.3112 21.4208L25.9604 29.321L12.2226 29.0988Z" fill="#FFE4CB"/>
<path d="M27.1304 18.7494C28.3712 17.6958 28.5228 15.8358 27.4692 14.5951C26.4156 13.3544 24.5556 13.2027 23.3149 14.2563C22.0742 15.3099 21.9225 17.1699 22.9761 18.4106C24.0297 19.6513 25.8897 19.803 27.1304 18.7494Z" fill="#FFE4CB"/>
<rect x="21" y="72" width="36" height="4" rx="2" fill="#C5C5C5"/>
<rect x="21" y="80" width="36" height="4" rx="2" fill="#C5C5C5"/>
</g>
<defs>
<clipPath id="clip0_2608_2498">
<rect width="207.5" height="149.905" fill="white" transform="translate(0.75)"/>
</clipPath>
</defs>
</svg>
